<svg width="204" height="157" viewBox="0 0 204 157" fill="none" xmlns="http://www.w3.org/2000/svg">
<path d="M153.704 0H50.8468C46.1129 0 42.2754 3.83756 42.2754 8.57143V111.429C42.2754 116.162 46.1129 120 50.8468 120H153.704C158.438 120 162.275 116.162 162.275 111.429V8.57143C162.275 3.83756 158.438 0 153.704 0Z" fill="#DAE8FF"/>
<g filter="url(#filter0_dddd_1305_28001)">
<path d="M67.7449 47.0217H168.277C169.265 47.0217 170.212 47.414 170.91 48.1123C171.608 48.8106 172.001 49.7576 172.001 50.7451V69.3622C172.001 70.3497 171.608 71.2968 170.91 71.9951C170.212 72.6934 169.265 73.0856 168.277 73.0856H67.7449C66.7574 73.0856 65.8103 72.6934 65.112 71.9951C64.4138 71.2968 64.0215 70.3497 64.0215 69.3622V50.7451C64.0215 49.7576 64.4138 48.8106 65.112 48.1123C65.8103 47.414 66.7574 47.0217 67.7449 47.0217V47.0217Z" fill="white"/>
<path d="M122.852 52.9791H103.49C102.256 52.9791 101.256 53.9793 101.256 55.2132C101.256 56.447 102.256 57.4472 103.49 57.4472H122.852C124.086 57.4472 125.086 56.447 125.086 55.2132C125.086 53.9793 124.086 52.9791 122.852 52.9791Z" fill="#DAE8FF"/>
<path d="M136.256 62.66H103.49C102.256 62.66 101.256 63.6603 101.256 64.8941C101.256 66.1279 102.256 67.1281 103.49 67.1281H136.256C137.49 67.1281 138.49 66.1279 138.49 64.8941C138.49 63.6603 137.49 62.66 136.256 62.66Z" fill="#DAE8FF"/>
<path d="M86.7346 67.1282C90.6418 67.1282 93.8091 63.9609 93.8091 60.0537C93.8091 56.1466 90.6418 52.9792 86.7346 52.9792C82.8275 52.9792 79.6602 56.1466 79.6602 60.0537C79.6602 63.9609 82.8275 67.1282 86.7346 67.1282Z" fill="#0566FF"/>
</g>
<g filter="url(#filter1_dddd_1305_28001)">
<path d="M35.7234 79.0431H136.256C137.243 79.0431 138.19 79.4354 138.888 80.1337C139.587 80.8319 139.979 81.779 139.979 82.7665V101.384C139.979 102.371 139.587 103.318 138.888 104.016C138.19 104.715 137.243 105.107 136.256 105.107H35.7234C34.7359 105.107 33.7888 104.715 33.0906 104.016C32.3923 103.318 32 102.371 32 101.384V82.7665C32 81.779 32.3923 80.8319 33.0906 80.1337C33.7888 79.4354 34.7359 79.0431 35.7234 79.0431V79.0431Z" fill="white"/>
<path d="M90.8302 85.0007H71.4684C70.2346 85.0007 69.2344 86.001 69.2344 87.2348C69.2344 88.4686 70.2346 89.4688 71.4684 89.4688H90.8302C92.064 89.4688 93.0642 88.4686 93.0642 87.2348C93.0642 86.001 92.064 85.0007 90.8302 85.0007Z" fill="#DAE8FF"/>
<path d="M104.234 94.6816H71.4684C70.2346 94.6816 69.2344 95.6819 69.2344 96.9157C69.2344 98.1495 70.2346 99.1497 71.4684 99.1497H104.234C105.468 99.1497 106.469 98.1495 106.469 96.9157C106.469 95.6819 105.468 94.6816 104.234 94.6816Z" fill="#DAE8FF"/>
<path d="M45.0374 99.1497C48.9445 99.1497 52.1119 95.9824 52.1119 92.0752C52.1119 88.1681 48.9445 85.0007 45.0374 85.0007C41.1302 85.0007 37.9629 88.1681 37.9629 92.0752C37.9629 95.9824 41.1302 99.1497 45.0374 99.1497Z" fill="#0566FF"/>
</g>
<g filter="url(#filter2_dddd_1305_28001)">
<path d="M136.256 15.0002H35.7234C33.667 15.0002 32 16.6673 32 18.7237V37.3407C32 39.3971 33.667 41.0642 35.7234 41.0642H136.256C138.312 41.0642 139.979 39.3971 139.979 37.3407V18.7237C139.979 16.6673 138.312 15.0002 136.256 15.0002Z" fill="white"/>
<path d="M89.3419 20.9575H69.9801C68.7463 20.9575 67.7461 21.9577 67.7461 23.1916C67.7461 24.4254 68.7463 25.4256 69.9801 25.4256H89.3419C90.5757 25.4256 91.576 24.4254 91.576 23.1916C91.576 21.9577 90.5757 20.9575 89.3419 20.9575Z" fill="#DAE8FF"/>
<path d="M102.746 30.6384H69.9801C68.7463 30.6384 67.7461 31.6386 67.7461 32.8725C67.7461 34.1063 68.7463 35.1065 69.9801 35.1065H102.746C103.98 35.1065 104.98 34.1063 104.98 32.8725C104.98 31.6386 103.98 30.6384 102.746 30.6384Z" fill="#DAE8FF"/>
<path d="M54.7132 35.1065C58.6203 35.1065 61.7877 31.9391 61.7877 28.032C61.7877 24.1249 58.6203 20.9575 54.7132 20.9575C50.806 20.9575 47.6387 24.1249 47.6387 28.032C47.6387 31.9391 50.806 35.1065 54.7132 35.1065Z" fill="#0566FF"/>
</g>
<defs>
<filter id="filter0_dddd_1305_28001" x="32.7448" y="41.8089" width="170.532" height="140" filterUnits="userSpaceOnUse" color-interpolation-filters="sRGB">
<feFlood flood-opacity="0" result="BackgroundImageFix"/>
<feColorMatrix in="SourceAlpha" type="matrix" values="0 0 0 0 0 0 0 0 0 0 0 0 0 0 0 0 0 0 127 0" result="hardAlpha"/>
<feOffset dy="5.21278"/>
<feGaussianBlur stdDeviation="5.21278"/>
<feColorMatrix type="matrix" values="0 0 0 0 0.74902 0 0 0 0 0.74902 0 0 0 0 0.74902 0 0 0 0.1 0"/>
<feBlend mode="normal" in2="BackgroundImageFix" result="effect1_dropShadow_1305_28001"/>
<feColorMatrix in="SourceAlpha" type="matrix" values="0 0 0 0 0 0 0 0 0 0 0 0 0 0 0 0 0 0 127 0" result="hardAlpha"/>
<feOffset dy="19.3618"/>
<feGaussianBlur stdDeviation="9.68088"/>
<feColorMatrix type="matrix" values="0 0 0 0 0.74902 0 0 0 0 0.74902 0 0 0 0 0.74902 0 0 0 0.09 0"/>
<feBlend mode="normal" in2="effect1_dropShadow_1305_28001" result="effect2_dropShadow_1305_28001"/>
<feColorMatrix in="SourceAlpha" type="matrix" values="0 0 0 0 0 0 0 0 0 0 0 0 0 0 0 0 0 0 127 0" result="hardAlpha"/>
<feOffset dy="43.9363"/>
<feGaussianBlur stdDeviation="13.032"/>
<feColorMatrix type="matrix" values="0 0 0 0 0.74902 0 0 0 0 0.74902 0 0 0 0 0.74902 0 0 0 0.05 0"/>
<feBlend mode="normal" in2="effect2_dropShadow_1305_28001" result="effect3_dropShadow_1305_28001"/>
<feColorMatrix in="SourceAlpha" type="matrix" values="0 0 0 0 0 0 0 0 0 0 0 0 0 0 0 0 0 0 127 0" result="hardAlpha"/>
<feOffset dy="77.4471"/>
<feGaussianBlur stdDeviation="15.6383"/>
<feColorMatrix type="matrix" values="0 0 0 0 0.74902 0 0 0 0 0.74902 0 0 0 0 0.74902 0 0 0 0.01 0"/>
<feBlend mode="normal" in2="effect3_dropShadow_1305_28001" result="effect4_dropShadow_1305_28001"/>
<feBlend mode="normal" in="SourceGraphic" in2="effect4_dropShadow_1305_28001" result="shape"/>
</filter>
<filter id="filter1_dddd_1305_28001" x="0.723309" y="73.8303" width="170.532" height="140" filterUnits="userSpaceOnUse" color-interpolation-filters="sRGB">
<feFlood flood-opacity="0" result="BackgroundImageFix"/>
<feColorMatrix in="SourceAlpha" type="matrix" values="0 0 0 0 0 0 0 0 0 0 0 0 0 0 0 0 0 0 127 0" result="hardAlpha"/>
<feOffset dy="5.21278"/>
<feGaussianBlur stdDeviation="5.21278"/>
<feColorMatrix type="matrix" values="0 0 0 0 0.74902 0 0 0 0 0.74902 0 0 0 0 0.74902 0 0 0 0.1 0"/>
<feBlend mode="normal" in2="BackgroundImageFix" result="effect1_dropShadow_1305_28001"/>
<feColorMatrix in="SourceAlpha" type="matrix" values="0 0 0 0 0 0 0 0 0 0 0 0 0 0 0 0 0 0 127 0" result="hardAlpha"/>
<feOffset dy="19.3618"/>
<feGaussianBlur stdDeviation="9.68088"/>
<feColorMatrix type="matrix" values="0 0 0 0 0.74902 0 0 0 0 0.74902 0 0 0 0 0.74902 0 0 0 0.09 0"/>
<feBlend mode="normal" in2="effect1_dropShadow_1305_28001" result="effect2_dropShadow_1305_28001"/>
<feColorMatrix in="SourceAlpha" type="matrix" values="0 0 0 0 0 0 0 0 0 0 0 0 0 0 0 0 0 0 127 0" result="hardAlpha"/>
<feOffset dy="43.9363"/>
<feGaussianBlur stdDeviation="13.032"/>
<feColorMatrix type="matrix" values="0 0 0 0 0.74902 0 0 0 0 0.74902 0 0 0 0 0.74902 0 0 0 0.05 0"/>
<feBlend mode="normal" in2="effect2_dropShadow_1305_28001" result="effect3_dropShadow_1305_28001"/>
<feColorMatrix in="SourceAlpha" type="matrix" values="0 0 0 0 0 0 0 0 0 0 0 0 0 0 0 0 0 0 127 0" result="hardAlpha"/>
<feOffset dy="77.4471"/>
<feGaussianBlur stdDeviation="15.6383"/>
<feColorMatrix type="matrix" values="0 0 0 0 0.74902 0 0 0 0 0.74902 0 0 0 0 0.74902 0 0 0 0.01 0"/>
<feBlend mode="normal" in2="effect3_dropShadow_1305_28001" result="effect4_dropShadow_1305_28001"/>
<feBlend mode="normal" in="SourceGraphic" in2="effect4_dropShadow_1305_28001" result="shape"/>
</filter>
<filter id="filter2_dddd_1305_28001" x="0.723309" y="9.78746" width="170.532" height="140" filterUnits="userSpaceOnUse" color-interpolation-filters="sRGB">
<feFlood flood-opacity="0" result="BackgroundImageFix"/>
<feColorMatrix in="SourceAlpha" type="matrix" values="0 0 0 0 0 0 0 0 0 0 0 0 0 0 0 0 0 0 127 0" result="hardAlpha"/>
<feOffset dy="5.21278"/>
<feGaussianBlur stdDeviation="5.21278"/>
<feColorMatrix type="matrix" values="0 0 0 0 0.74902 0 0 0 0 0.74902 0 0 0 0 0.74902 0 0 0 0.1 0"/>
<feBlend mode="normal" in2="BackgroundImageFix" result="effect1_dropShadow_1305_28001"/>
<feColorMatrix in="SourceAlpha" type="matrix" values="0 0 0 0 0 0 0 0 0 0 0 0 0 0 0 0 0 0 127 0" result="hardAlpha"/>
<feOffset dy="19.3618"/>
<feGaussianBlur stdDeviation="9.68088"/>
<feColorMatrix type="matrix" values="0 0 0 0 0.74902 0 0 0 0 0.74902 0 0 0 0 0.74902 0 0 0 0.09 0"/>
<feBlend mode="normal" in2="effect1_dropShadow_1305_28001" result="effect2_dropShadow_1305_28001"/>
<feColorMatrix in="SourceAlpha" type="matrix" values="0 0 0 0 0 0 0 0 0 0 0 0 0 0 0 0 0 0 127 0" result="hardAlpha"/>
<feOffset dy="43.9363"/>
<feGaussianBlur stdDeviation="13.032"/>
<feColorMatrix type="matrix" values="0 0 0 0 0.74902 0 0 0 0 0.74902 0 0 0 0 0.74902 0 0 0 0.05 0"/>
<feBlend mode="normal" in2="effect2_dropShadow_1305_28001" result="effect3_dropShadow_1305_28001"/>
<feColorMatrix in="SourceAlpha" type="matrix" values="0 0 0 0 0 0 0 0 0 0 0 0 0 0 0 0 0 0 127 0" result="hardAlpha"/>
<feOffset dy="77.4471"/>
<feGaussianBlur stdDeviation="15.6383"/>
<feColorMatrix type="matrix" values="0 0 0 0 0.74902 0 0 0 0 0.74902 0 0 0 0 0.74902 0 0 0 0.01 0"/>
<feBlend mode="normal" in2="effect3_dropShadow_1305_28001" result="effect4_dropShadow_1305_28001"/>
<feBlend mode="normal" in="SourceGraphic" in2="effect4_dropShadow_1305_28001" result="shape"/>
</filter>
</defs>
</svg>
